<svg
  viewBox="0 0 1899 1899"
  xmlns="http://www.w3.org/2000/svg"
  role="img"
  aria-label="Oslobygda kulturlag"
  class="logo__svg"
>
  <path
    class="logo__mark"
    fill="currentColor" d="M1898.709,925.776c0.194,7.885 0.291,15.793 0.291,23.724c0,524.043 -425.457,949.5 -949.5,949.5c-524.043,0 -949.5,-425.457 -949.5,-949.5c0,-524.043 425.457,-949.5 949.5,-949.5c512.136,0 930.114,406.341 948.845,913.933c-97.248,-30.648 -271.076,-45.017 -367.067,-32.212c-29.2,3.895 -58.779,5.814 -88.2,10.963c-39.677,6.944 -79.393,16.605 -119.146,28.985c-69.231,21.559 -136.963,48.623 -203.196,81.192c-66.233,32.569 -129.383,67.674 -189.448,105.316c-60.065,37.642 -115.462,75.024 -166.189,112.147c-1.268,0.692 -2.421,1.441 -3.459,2.248c-2.075,1.729 -4.439,3.43 -7.09,5.102c-2.652,1.672 -6.11,3.026 -10.376,4.064c3.805,-7.148 7.321,-13.892 10.549,-20.233c5.88,-11.644 11.587,-22.942 17.12,-33.895c14.526,-28.592 28.822,-57.298 42.887,-86.121c14.065,-28.822 27.323,-57.933 39.775,-87.331c15.449,-37.008 23.115,-65.657 23,-85.948c-0.115,-20.291 -6.658,-33.751 -19.628,-40.38c-12.97,-6.629 -30.926,-7.782 -53.869,-3.459c-22.942,4.323 -49.516,12.595 -79.722,24.816c-7.378,2.998 -21.588,9.569 -42.628,19.714c-21.04,10.145 -46.087,22.885 -75.139,38.218c-29.053,15.333 -59.114,31.964 -90.185,49.891c-31.07,17.927 -60.152,35.884 -87.245,53.869c-27.093,17.985 -49.401,34.961 -66.925,50.929c-17.524,15.967 -27.179,29.6 -28.966,40.899c-1.787,11.298 7.35,19.08 27.41,23.346c11.414,2.075 28.275,2.911 50.583,2.508c22.308,-0.404 45.337,-1.614 69.087,-3.632c23.749,-2.018 43.723,-4.237 59.921,-6.658c16.198,-2.421 23.951,-4.612 23.259,-6.571c-2.075,-1.845 -8.704,-2.508 -19.887,-1.989c-11.183,0.519 -24.614,1.528 -40.293,3.026c-10.376,0.807 -21.04,1.614 -31.993,2.421c-19.484,1.499 -37.152,2.306 -53.004,2.421c-15.852,0.115 -27.064,0.058 -33.635,-0.173c-13.719,-0.576 -22.856,-2.825 -27.41,-6.744c-4.554,-3.92 -2.277,-11.298 6.831,-22.135c12.451,-14.296 28.246,-28.909 47.384,-43.839c19.138,-14.93 38.535,-28.88 58.192,-41.85c19.657,-12.97 36.172,-23.375 49.545,-31.214c35.855,-21.559 72.228,-41.85 109.121,-60.872c36.892,-19.023 74.592,-36.258 113.098,-51.707c39.313,-15.679 68.107,-22.971 86.38,-21.876c18.273,1.095 27.15,11.241 26.632,30.436c-0.519,19.196 -9.137,48.162 -25.853,86.899c-16.947,38.852 -34.932,77.243 -53.955,115.173c-19.023,37.93 -38.333,75.745 -57.933,113.444l-15.91,30.436c-3.805,7.378 -8.877,13.604 -15.218,18.677c-40.12,33.549 -75.514,66.81 -106.181,99.782c-30.667,32.973 -56.837,69.865 -78.512,110.677c-21.674,40.812 -39.371,89.867 -53.09,147.166c-2.306,9.454 -3.689,18.85 -4.15,28.188c-0.346,8.07 1.701,13.691 6.139,16.861c4.439,3.17 10.462,3.66 18.071,1.47c4.15,-1.268 7.667,-3.257 10.549,-5.966c2.882,-2.709 5.476,-5.793 7.782,-9.252c10.376,-14.296 20.406,-28.765 30.09,-43.406c62.832,-96.151 121.168,-194.953 175.008,-296.407c5.764,-11.183 11.702,-22.193 17.812,-33.03c1.038,-1.614 2.19,-3.055 3.459,-4.323c1.268,-1.268 3.055,-1.902 5.361,-1.902c5.764,-0.231 12.105,-0.692 19.023,-1.383c12.105,-1.614 24.067,-2.219 35.884,-1.816c11.817,0.404 20.954,3.776 27.41,10.117c6.456,6.341 8.185,17.639 5.188,33.895c-2.075,10.376 -4.496,20.637 -7.263,30.782l-4.496,18.331c-2.306,9.8 -4.237,19.599 -5.793,29.399c-1.556,9.8 -1.931,19.657 -1.124,29.572c1.729,20.291 8.301,36.46 19.714,48.508c11.414,12.048 27.15,19.051 47.211,21.011c20.867,1.499 38.708,-2.19 53.523,-11.068c14.815,-8.877 25.911,-22.02 33.29,-39.429l0,-0.519c1.038,-1.729 1.672,-3.66 1.902,-5.793c0.231,-2.133 -0.692,-4.122 -2.767,-5.966c-1.96,-1.499 -4.266,-1.672 -6.917,-0.519c-2.652,1.153 -5.015,3.343 -7.09,6.571c-1.038,1.845 -1.902,3.747 -2.594,5.707l-3.113,6.226c-5.303,9.108 -12.278,16.544 -20.925,22.308c-11.644,7.609 -23.317,11.241 -35.019,10.895c-11.702,-0.346 -22.107,-4.15 -31.214,-11.414c-9.108,-7.263 -15.795,-17.466 -20.06,-30.609c-4.381,-15.218 -4.9,-30.436 -1.556,-45.654c2.767,-12.912 5.534,-25.709 8.301,-38.391c2.767,-11.644 5.419,-23.346 7.955,-35.105c1.614,-7.033 2.536,-14.238 2.767,-21.617c0,-15.679 -7.378,-26.574 -22.135,-32.684c-10.145,-3.805 -21.357,-5.909 -33.635,-6.312c-12.278,-0.404 -24.009,-0.086 -35.192,0.951l-5.361,0c-6.11,0.231 -9.281,-0.548 -9.511,-2.335c-0.231,-1.787 1.038,-3.949 3.805,-6.485c2.767,-2.536 5.707,-4.784 8.82,-6.744l0.346,-0.346c39.544,-30.206 83.728,-61.679 132.553,-94.421c48.825,-32.742 100.964,-64.706 156.418,-95.891c55.454,-31.186 112.781,-59.72 171.982,-85.602c59.201,-25.882 118.978,-47.067 179.331,-63.553c60.354,-16.486 120.039,-24.459 178.64,-29.658c149.74,-13.286 238.49,10.162 341.252,32.342c0.435,0.167 0.861,0.296 1.277,0.386Zm-1115.965,-180.02c-3.327,12.632 -4.549,22.305 -3.666,29.019c2.767,15.91 10.808,23.173 24.124,21.79c13.316,-1.383 26.257,-6.514 38.823,-15.391c4.826,-3.41 9.474,-7.066 13.944,-10.968c0.366,3.598 1.598,6.822 3.695,9.671c5.303,7.206 16.313,10.924 33.03,11.154l1.556,0c20.521,-1.038 37.411,-13.431 50.669,-37.181c1.96,-3.574 3.228,-7.378 3.805,-11.414c1.038,-6.687 -0.173,-12.365 -3.632,-17.034c-3.459,-4.669 -8.589,-7.523 -15.391,-8.56l-5.361,0c-4.266,-0.231 -8.301,0.404 -12.105,1.902c-0.807,0.231 -1.441,0.519 -1.902,0.865c-1.845,0.922 -3.747,1.556 -5.707,1.902c-0.807,-0.346 -1.614,-0.634 -2.421,-0.865c-2.536,-1.038 -4.784,-1.383 -6.744,-1.038c-3.343,0 -6.341,0.692 -8.993,2.075c-2.652,1.383 -5.246,3.228 -7.782,5.534c-7.378,6.802 -13.489,14.757 -18.331,23.865c-0.313,0.651 -0.61,1.295 -0.89,1.933c-2.274,2.058 -5.407,4.786 -9.399,8.184c-6.975,5.937 -16.89,11.759 -29.744,17.466c-12.855,5.707 -20.147,2.911 -21.876,-8.387c-1.729,-11.298 24.672,-81.624 79.203,-210.978c0.461,-3.228 0.058,-5.476 -1.211,-6.744c-1.268,-1.268 -2.536,-2.19 -3.805,-2.767c-3.805,-1.499 -7.09,-0.865 -9.857,1.902c-2.075,2.075 -3.632,4.496 -4.669,7.263c-12.336,31.013 -29.11,70.787 -50.323,119.324c-9.912,22.679 -17.282,41.784 -22.109,57.315c-1.155,-0.273 -2.778,-0.067 -4.868,0.618c-30.897,11.414 -47.24,17.264 -49.026,17.553c-1.787,0.288 -3.315,-0.519 -4.583,-2.421c-1.268,-1.902 -2.882,-5.39 -4.842,-10.462c-0.807,-1.845 -1.729,-3.862 -2.767,-6.053c-1.499,-3.574 -2.363,-7.263 -2.594,-11.068c0,-3.113 0.519,-6.168 1.556,-9.165c1.499,-3.805 3.776,-6.139 6.831,-7.004c3.055,-0.865 6.081,-0.202 9.079,1.989c0.807,0.576 1.556,1.383 2.248,2.421c0.576,0.461 1.211,0.922 1.902,1.383l0,0.519c1.499,1.268 3.055,2.248 4.669,2.94c2.536,1.268 4.9,1.038 7.09,-0.692c3.343,-2.536 3.977,-5.361 1.902,-8.474c-2.536,-4.496 -5.937,-7.58 -10.203,-9.252c-4.266,-1.672 -9.108,-2.392 -14.526,-2.162c-9.569,0.346 -16.63,2.796 -21.184,7.35c-4.554,4.554 -7.033,10.174 -7.436,16.861c-0.404,6.687 0.893,13.489 3.891,20.406c1.614,3.805 3.17,7.494 4.669,11.068c0.692,1.499 1.326,2.998 1.902,4.496c1.729,4.266 0.432,8.128 -3.891,11.587c-4.323,3.459 -12.884,9.108 -25.681,16.947c-12.797,7.84 -20.723,15.564 -23.778,23.173c-3.055,7.609 -0.634,13.892 7.263,18.85c7.897,4.957 23.519,4.784 46.865,-0.519c23.346,-5.303 34.615,-14.584 33.808,-27.842c-0.461,-6.571 -1.96,-12.912 -4.496,-19.023c-0.346,-0.461 -0.519,-0.807 -0.519,-1.038c-2.19,-5.073 -2.853,-8.56 -1.989,-10.462c0.865,-1.902 4.237,-4.295 10.117,-7.177c7.502,-3.966 19.389,-9.027 35.659,-15.185Zm-71.11,64.643c-11.414,4.15 -23.058,5.303 -34.932,3.459c-1.614,0 -2.652,-0.576 -3.113,-1.729c-0.461,-1.153 -0.346,-2.19 0.346,-3.113l0.346,-0.519c0.576,-0.692 1.211,-1.441 1.902,-2.248c10.145,-9.108 21.213,-17.063 33.203,-23.865c4.842,-2.536 7.955,-2.623 9.338,-0.259c1.383,2.363 2.306,5.736 2.767,10.117c0.231,0.692 0.346,1.326 0.346,1.902c1.268,8.07 -2.133,13.489 -10.203,16.256Zm208.903,-81.278c7.148,0.922 9.944,4.813 8.387,11.673c-1.556,6.86 -5.822,14.094 -12.797,21.703c-6.975,7.609 -15.016,12.797 -24.124,15.564c-8.07,2.075 -12.884,0.778 -14.44,-3.891c-1.556,-4.669 -0.605,-10.635 2.853,-17.899c3.459,-7.263 8.733,-13.691 15.823,-19.282c7.09,-5.591 15.189,-8.214 24.297,-7.868Zm121.901,212.932c5.529,4.846 11.818,8.518 18.867,11.016c22.135,7.955 45.135,9.511 69,4.669c14.411,-2.767 27.208,-9.396 38.391,-19.887c9.338,-8.301 17.293,-17.812 23.865,-28.534c11.759,-18.677 21.559,-38.333 29.399,-58.97c6.11,-15.449 11.932,-31.013 17.466,-46.692c2.075,-6.571 6.283,-11.414 12.624,-14.526c2.767,-1.268 5.534,-2.652 8.301,-4.15c1.729,-1.038 3.516,-1.902 5.361,-2.594c12.451,-6.341 24.845,-12.682 37.181,-19.023c5.91,-3.053 11.802,-6.05 17.676,-8.993c-1.063,2.88 -1.997,5.877 -2.804,8.993c-1.038,4.727 -1.268,9.511 -0.692,14.353c1.499,11.99 8.474,17.697 20.925,17.12c7.609,-0.231 14.815,-2.363 21.617,-6.399c11.414,-6.917 21.559,-15.449 30.436,-25.594c4.842,-5.303 9.569,-10.722 14.181,-16.256c0.692,-0.807 1.441,-1.556 2.248,-2.248c2.998,-3.805 4.813,-5.39 5.447,-4.756c0.634,0.634 0.202,3.718 -1.297,9.252c-0.231,1.499 -0.634,2.998 -1.211,4.496c-0.922,3.113 -1.672,6.283 -2.248,9.511c-1.268,15.218 5.822,22.712 21.271,22.481c6.687,-0.231 12.682,-1.845 17.985,-4.842c1.964,-0.982 3.884,-2.024 5.76,-3.127c0.063,2.455 0.708,4.621 1.935,6.499c2.825,4.323 8.157,6.716 15.996,7.177c10.607,0.576 20.464,-1.845 29.572,-7.263c3.805,-2.19 11.298,-8.128 22.481,-17.812c0.576,21.559 14.642,27.381 42.196,17.466c3.343,-1.499 6.514,-3.286 9.511,-5.361c0,-0.231 0.173,-0.346 0.519,-0.346c4.496,-2.998 8.647,-6.399 12.451,-10.203c3.805,-3.805 7.378,-7.897 10.722,-12.278c2.306,-5.995 2.104,-9.771 -0.605,-11.327c-2.709,-1.556 -6.024,-0.115 -9.944,4.323c-3.92,4.439 -8.733,9.338 -14.44,14.699c-5.707,5.361 -11.414,8.993 -17.12,10.895c-5.707,1.902 -9.944,1.902 -12.711,0c-2.767,-1.902 -2.652,-8.33 0.346,-19.282c0.807,-2.536 1.556,-5.073 2.248,-7.609c1.268,-6.802 -1.902,-10.203 -9.511,-10.203c-5.303,0.461 -9.742,2.594 -13.316,6.399c-8.07,7.378 -16.313,14.584 -24.729,21.617l-0.346,0.519c-1.729,1.268 -3.862,2.853 -6.399,4.756c-2.536,1.902 -5.073,3.343 -7.609,4.323c-2.536,0.98 -4.842,1.124 -6.917,0.432c-0.692,-0.576 -0.98,-1.355 -0.865,-2.335c0.115,-0.98 0.404,-1.873 0.865,-2.68c8.647,-18.561 21.847,-33.03 39.602,-43.406c3.805,-2.306 7.407,-3.833 10.808,-4.583c3.401,-0.749 6.773,1.182 10.117,5.793c0.231,0.231 0.548,0.404 0.951,0.519c0.404,0.115 0.721,0.173 0.951,0.173c3.343,1.268 6.283,0.749 8.82,-1.556c1.96,-1.96 2.594,-4.208 1.902,-6.744c-1.614,-8.416 -6.341,-12.855 -14.181,-13.316c-7.84,-0.807 -15.333,0.576 -22.481,4.15c-13.373,6.11 -25.536,14.238 -36.489,24.384c-5.176,5.048 -9.696,10.486 -13.562,16.313c-7.279,6.31 -15.094,11.882 -23.446,16.718c-0.461,0.231 -0.807,0.519 -1.038,0.865c-1.614,0.692 -3.113,1.297 -4.496,1.816c-1.383,0.519 -2.709,0.375 -3.977,-0.432c-1.96,-1.499 -2.94,-3.257 -2.94,-5.274c0,-2.018 0.346,-4.064 1.038,-6.139c2.536,-9.338 5.707,-18.446 9.511,-27.323c3.113,-7.609 6.168,-15.218 9.165,-22.827c9.108,-22.02 18.36,-43.896 27.756,-65.628c9.396,-21.732 19.397,-43.204 30.004,-64.418c2.075,-4.381 3.862,-8.993 5.361,-13.835c0.807,-1.96 0.519,-3.516 -0.865,-4.669c-1.383,-1.153 -3.228,-1.729 -5.534,-1.729l-1.556,0c-2.075,0 -4.064,0.202 -5.966,0.605c-1.902,0.404 -3.487,1.585 -4.756,3.545c-2.767,4.035 -5.303,8.243 -7.609,12.624c-7.84,14.181 -15.679,28.246 -23.519,42.196c-9.684,17.754 -19.311,35.394 -28.88,52.917c-5.073,9.108 -10.261,18.216 -15.564,27.323c-1.038,1.845 -2.075,3.632 -3.113,5.361c-2.536,4.612 -6.571,6.11 -12.105,4.496c-19.599,-2.998 -37.008,0.634 -52.226,10.895c-8.7,5.866 -15.742,13.258 -21.127,22.176c-3.154,1.02 -6.257,2.217 -9.31,3.591c-6.802,3.228 -13.662,6.399 -20.579,9.511c-9.8,4.496 -19.541,9.05 -29.226,13.662c-0.807,0.231 -1.556,0.461 -2.248,0.692c-5.303,2.767 -9.05,3.977 -11.241,3.632c-2.19,-0.346 -1.729,-3.977 1.383,-10.895c2.19,-5.303 4.439,-10.491 6.744,-15.564c2.075,-4.842 4.266,-9.511 6.571,-14.008c3.228,-7.378 6.514,-14.642 9.857,-21.79c1.268,-3.805 0.951,-6.888 -0.951,-9.252c-1.902,-2.363 -4.756,-2.796 -8.56,-1.297c-3.574,1.499 -7.061,2.248 -10.462,2.248c-3.401,0 -6.773,-0.231 -10.117,-0.692c-1.268,-0.346 -2.536,-0.519 -3.805,-0.519c-12.221,-1.268 -23.577,0.836 -34.068,6.312c-10.491,5.476 -19.109,13.028 -25.853,22.654c-3.472,4.956 -6.111,10.224 -7.918,15.806c-2.506,1.535 -5.401,3.501 -8.684,5.897c-12.163,8.877 -21.415,13.95 -27.756,15.218c-1.614,0 -2.421,-0.951 -2.421,-2.853c0,-1.902 0.404,-4.122 1.211,-6.658c0.807,-2.536 1.672,-4.957 2.594,-7.263c0.346,-0.692 0.634,-1.441 0.865,-2.248c3.574,-10.145 6.975,-20.406 10.203,-30.782c0.807,-3.113 0.259,-5.62 -1.643,-7.523c-1.902,-1.902 -4.64,-2.68 -8.214,-2.335c-2.767,0.231 -4.986,1.153 -6.658,2.767c-1.672,1.614 -3.142,3.574 -4.41,5.88c-8.877,16.256 -20.176,30.609 -33.895,43.06c-5.073,5.073 -11.01,8.993 -17.812,11.759c-2.306,1.038 -4.352,1.038 -6.139,0c-1.787,-1.038 -2.796,-2.709 -3.026,-5.015c-0.461,-10.837 1.845,-21.213 6.917,-31.128l3.805,-7.609c1.499,-3.343 2.998,-6.629 4.496,-9.857c0.807,-2.306 0.519,-4.208 -0.865,-5.707c-1.383,-1.499 -3.343,-2.133 -5.88,-1.902c-0.346,0.231 -0.634,0.346 -0.865,0.346c-1.268,0.231 -2.536,0.605 -3.805,1.124c-1.268,0.519 -2.248,1.182 -2.94,1.989c-6.687,7.84 -11.846,16.198 -15.477,25.075c-3.632,8.877 -5.332,18.273 -5.102,28.188c0.231,12.105 7.09,18.158 20.579,18.158c8.531,0.576 16.774,-1.441 24.729,-6.053c1.499,-1.038 2.882,-1.902 4.15,-2.594c2.306,-1.614 4.554,-3.055 6.744,-4.323c0.807,-0.461 1.528,-0.634 2.162,-0.519c0.634,0.115 1.066,0.576 1.297,1.383c0.231,1.268 0.115,2.652 -0.346,4.15c-1.499,4.266 -4.439,7.206 -8.82,8.82c-6.341,2.767 -12.509,5.534 -18.504,8.301c-1.845,0.807 -3.516,1.556 -5.015,2.248c-22.02,9.684 -43.81,19.714 -65.369,30.09c-21.559,10.376 -42.657,21.79 -63.293,34.241c-11.068,6.802 -21.674,14.296 -31.82,22.481c-5.073,4.266 -9.511,9.05 -13.316,14.353c-7.148,10.722 -6.514,20.406 1.902,29.053c5.073,4.727 10.779,8.531 17.12,11.414c15.679,6.802 31.704,11.356 48.075,13.662c16.371,2.306 33.318,1.787 50.842,-1.556c7.024,-1.535 13.532,-3.708 19.524,-6.52Zm131.975,-180.848c-0.004,0.085 -0.007,0.17 -0.01,0.255c0,19.945 9.857,27.554 29.572,22.827c3.343,-1.268 6.687,-2.709 10.03,-4.323c1.268,-0.692 2.652,-1.326 4.15,-1.902c3.805,-1.729 6.197,-2.162 7.177,-1.297c0.98,0.865 1.153,2.248 0.519,4.15c-0.634,1.902 -1.585,3.805 -2.853,5.707c-1.268,1.902 -2.248,3.142 -2.94,3.718c-4.381,2.536 -8.82,4.957 -13.316,7.263l-0.346,0c-34.567,17.653 -68.431,36.641 -101.591,56.962c2.114,-5.817 4.1,-11.662 5.959,-17.533c2.767,-7.84 5.534,-15.449 8.301,-22.827c2.075,-5.995 3.747,-10.779 5.015,-14.353c1.499,-4.842 2.882,-8.416 4.15,-10.722c1.268,-2.306 3.286,-4.208 6.053,-5.707c2.767,-1.499 7.206,-3.516 13.316,-6.053c11.31,-6.016 20.249,-11.404 26.815,-16.165Zm-97.92,111.101c-9.964,6.423 -19.292,13.573 -27.985,21.448c-4.381,4.035 -8.358,8.358 -11.932,12.97c-6.229,8.454 -7.41,16.496 -3.542,24.125c-8.147,4.647 -17.515,7.5 -28.105,8.559c-25.363,2.075 -49.055,-2.594 -71.075,-14.008c-9.684,-4.612 -14.699,-9.771 -15.045,-15.477c-0.346,-5.707 3.747,-12.365 12.278,-19.974c10.491,-9.108 21.674,-17.063 33.549,-23.865c19.484,-11.183 39.371,-21.732 59.662,-31.647c20.291,-9.915 40.582,-19.541 60.872,-28.88c2.536,-1.268 5.073,-2.421 7.609,-3.459c1.268,-0.461 2.709,-0.865 4.323,-1.211l1.902,0c0.922,1.614 1.326,3.17 1.211,4.669c-0.115,1.499 -0.519,2.882 -1.211,4.15c-0.346,0.461 -0.519,0.98 -0.519,1.556c-2.536,6.571 -4.9,13.546 -7.09,20.925c-4.319,13.351 -9.287,26.723 -14.902,40.116Zm-16.079,58.087c1.81,-1.575 3.548,-3.24 5.214,-4.993c11.068,-11.644 20.089,-25.277 27.064,-40.899c1.655,-3.707 3.257,-7.425 4.805,-11.154c26.234,-16.888 53.138,-32.798 80.711,-47.729c4.842,-2.536 9.281,-5.073 13.316,-7.609c6.341,-4.035 11.471,-6.802 15.391,-8.301c3.92,-1.499 6.139,-0.663 6.658,2.508c0.519,3.17 -1.009,9.828 -4.583,19.974c-7.84,22.597 -18.1,44.271 -30.782,65.023c-4.381,6.802 -8.935,13.373 -13.662,19.714c-7.955,9.684 -16.602,16.947 -25.94,21.79c-9.338,4.842 -19.484,6.86 -30.436,6.053c-9.338,0 -17.899,-1.009 -25.681,-3.026c-7.782,-2.018 -14.843,-5.563 -21.184,-10.635c-0.305,-0.237 -0.602,-0.475 -0.891,-0.714Zm-6.647,-18.18c1.103,-3.206 3.27,-6.534 6.501,-9.985c0.829,-0.879 1.669,-1.748 2.518,-2.604c-2.801,4.429 -5.808,8.625 -9.019,12.59Zm143.809,-141.241c-4.266,-2.882 -5.332,-8.301 -3.199,-16.256c2.133,-7.955 6.427,-15.996 12.884,-24.124c6.456,-8.128 13.892,-13.863 22.308,-17.207c2.536,-0.692 4.929,-1.095 7.177,-1.211c2.248,-0.115 4.295,0.922 6.139,3.113c1.038,1.038 1.787,2.19 2.248,3.459c1.729,4.381 0.836,9.742 -2.68,16.083c-3.516,6.341 -8.272,12.538 -14.267,18.59c-5.995,6.053 -11.846,10.808 -17.553,14.267c-5.707,3.459 -10.059,4.554 -13.056,3.286Zm197.489,-41.158c-0.807,1.038 -4.064,4.986 -9.771,11.846c-5.707,6.86 -12.163,14.094 -19.368,21.703c-7.206,7.609 -13.719,13.114 -19.541,16.515c-5.822,3.401 -9.252,2.335 -10.29,-3.199l0,-3.113c0,-0.231 -0.115,-0.634 -0.346,-1.211c0.692,-12.105 5.044,-23.173 13.056,-33.203c8.013,-10.03 17.956,-16.832 29.831,-20.406c4.842,-1.729 9.396,-1.441 13.662,0.865c2.075,0.922 3.372,2.335 3.891,4.237c0.519,1.902 0.144,3.891 -1.124,5.966Zm-368.334,601.681c-1.124,6.609 -1.408,12.036 -0.85,16.281c2.767,15.91 10.808,23.173 24.124,21.79c13.316,-1.383 26.257,-6.514 38.823,-15.391c6.134,-4.333 11.98,-9.065 17.538,-14.195c-1.638,17.488 5.457,27.61 21.286,30.365c16.89,2.94 32.742,0.086 47.557,-8.56c8.49,-4.955 17.085,-11.482 25.783,-19.581c-1.567,5.951 -2.351,10.98 -2.351,15.084c0,11.414 5.476,17.12 16.429,17.12c9.915,0 19.051,-3.43 27.41,-10.29c8.358,-6.86 18.879,-15.881 31.56,-27.064c0,16.025 5.937,25.306 17.812,27.842l2.421,0c8.07,0 17.293,-3.343 27.669,-10.03c4.089,-2.602 8.489,-5.633 13.199,-9.094c-0.423,0.783 -0.845,1.566 -1.267,2.349c-1.729,3.228 -3.228,6.399 -4.496,9.511c-0.807,1.729 -0.692,3.228 0.346,4.496c1.038,1.268 2.536,2.018 4.496,2.248c2.075,0.346 4.122,0.259 6.139,-0.259c2.018,-0.519 3.776,-1.816 5.274,-3.891c2.306,-2.998 4.612,-6.168 6.917,-9.511c0.461,-0.692 1.095,-1.556 1.902,-2.594c7.84,-11.99 16.832,-23.173 26.978,-33.549c6.571,-6.571 14.93,-12.019 25.075,-16.342c10.145,-4.323 14.094,-2.104 11.846,6.658c-2.248,8.762 -0.144,11.932 6.312,9.511c6.456,-2.421 10.203,-7.609 11.241,-15.564c1.038,-7.955 -0.548,-12.711 -4.756,-14.267c-4.208,-1.556 -9.598,-1.816 -16.169,-0.778c-6.571,1.038 -13.316,2.825 -20.233,5.361c-3.228,1.268 -5.303,1.643 -6.226,1.124c-0.922,-0.519 -2.018,-2.796 -3.286,-6.831c-1.038,-3.113 -3.055,-4.9 -6.053,-5.361c-2.998,-0.461 -5.649,0.576 -7.955,3.113c-2.075,2.536 -3.862,5.303 -5.361,8.301c0,0.231 -0.115,0.461 -0.346,0.692c-5.454,9.853 -10.864,19.691 -16.229,29.514c-26.768,19.407 -43.091,29.11 -48.967,29.11c-2.536,0 -3.805,-1.902 -3.805,-5.707c0,-2.536 2.767,-12.048 8.301,-28.534c4.035,-12.105 6.053,-19.08 6.053,-20.925c0,-4.842 -3.286,-7.263 -9.857,-7.263c-4.496,0 -9.05,2.825 -13.662,8.474c-35.739,41.85 -57.817,62.775 -66.233,62.775c-2.306,0 -3.459,-1.268 -3.459,-3.805c0,-2.306 0.922,-5.88 2.767,-10.722c11.644,-29.629 17.697,-44.847 18.158,-45.654c1.268,-2.998 1.902,-5.534 1.902,-7.609c0,-5.764 -3.632,-8.647 -10.895,-8.647c-1.845,0 -3.113,0.749 -3.805,2.248c-6.51,12.689 -11.85,23.998 -16.018,33.928c-19.923,20.989 -39.025,33.66 -57.305,38.012c-19.714,4.496 -27.15,-2.882 -22.308,-22.135c2.19,-10.607 5.188,-20.983 8.993,-31.128c6.11,-15.564 12.451,-31.07 19.023,-46.519c2.536,-6.11 5.073,-12.163 7.609,-18.158c2.536,-6.341 5.246,-12.855 8.128,-19.541c1.96,-5.073 3.977,-10.145 6.053,-15.218c1.96,-5.303 5.88,-7.955 11.759,-7.955c12.682,-0.231 25.479,-0.749 38.391,-1.556l3.805,0c2.075,0.346 4.122,0.375 6.139,0.086c2.018,-0.288 3.891,-1.412 5.62,-3.372c2.536,-3.343 -2.536,-5.13 -15.218,-5.361l-12.105,0c-7.84,0 -15.852,-0.115 -24.038,-0.346c-1.499,0 -2.623,-0.576 -3.372,-1.729c-0.749,-1.153 -0.721,-2.479 0.086,-3.977c2.998,-8.185 6.168,-16.198 9.511,-24.038c1.729,-4.266 3.343,-8.474 4.842,-12.624c0.576,-1.268 1.095,-2.363 1.556,-3.286c2.306,-4.381 3.459,-8.82 3.459,-13.316c0,-0.807 -0.202,-1.729 -0.605,-2.767c-0.404,-1.038 -0.951,-1.787 -1.643,-2.248c-2.306,-1.729 -5.015,-1.845 -8.128,-0.346c-3.228,1.96 -5.591,4.727 -7.09,8.301c-1.845,3.574 -3.632,7.263 -5.361,11.068c-3.805,8.416 -7.609,16.659 -11.414,24.729c-1.499,2.767 -2.767,5.303 -3.805,7.609c-1.845,4.266 -3.459,7.436 -4.842,9.511c-1.383,2.075 -3.199,3.286 -5.447,3.632c-2.248,0.346 -5.678,0.519 -10.29,0.519l-7.263,0c-7.033,0.231 -14.123,0.519 -21.271,0.865c-2.767,0.461 -5.419,1.211 -7.955,2.248c-0.807,0.231 -1.47,0.663 -1.989,1.297c-0.519,0.634 -0.893,1.182 -1.124,1.643c0,0.807 0.202,1.528 0.605,2.162c0.404,0.634 0.951,1.066 1.643,1.297c2.536,1.499 5.274,2.248 8.214,2.248c2.94,0 5.909,-0.115 8.906,-0.346c1.845,-0.231 3.632,-0.461 5.361,-0.692l14.872,0c5.88,0.231 7.897,2.882 6.053,7.955c-1.268,2.998 -2.536,5.937 -3.805,8.82c-0.692,1.729 -1.441,3.459 -2.248,5.188c-3.343,7.955 -6.514,15.852 -9.511,23.692c-9.108,21.79 -18.1,43.694 -26.978,65.715c-1.84,4.868 -3.482,9.796 -4.925,14.786c-0.144,0.141 -0.29,0.285 -0.436,0.432c-1.729,1.845 -6.081,5.736 -13.056,11.673c-6.975,5.937 -16.89,11.759 -29.744,17.466c-12.855,5.707 -20.147,2.911 -21.876,-8.387c-1.729,-11.298 24.672,-81.624 79.203,-210.978c0.461,-3.228 0.058,-5.476 -1.211,-6.744c-1.268,-1.268 -2.536,-2.19 -3.805,-2.767c-3.805,-1.499 -7.09,-0.865 -9.857,1.902c-2.075,2.075 -3.632,4.496 -4.669,7.263c-12.336,31.013 -29.11,70.787 -50.323,119.324c-10.997,25.163 -18.865,45.925 -23.604,62.288c-0.575,0.349 -1.18,0.799 -1.817,1.351c-30.667,22.597 -49.171,33.895 -55.511,33.895c-2.536,0 -3.805,-1.902 -3.805,-5.707c0,-2.536 2.767,-12.048 8.301,-28.534c4.035,-12.105 6.053,-19.08 6.053,-20.925c0,-4.842 -3.286,-7.263 -9.857,-7.263c-4.496,0 -9.05,2.825 -13.662,8.474c-35.739,41.85 -57.817,62.775 -66.233,62.775c-2.306,0 -3.459,-1.268 -3.459,-3.805c0,-2.306 0.922,-5.88 2.767,-10.722c11.644,-29.629 17.697,-44.847 18.158,-45.654c1.268,-2.998 1.902,-5.534 1.902,-7.609c0,-5.764 -3.632,-8.647 -10.895,-8.647c-1.845,0 -3.113,0.749 -3.805,2.248c-18.1,35.278 -27.15,59.892 -27.15,73.842c0,11.414 5.476,17.12 16.429,17.12c9.915,0 19.051,-3.43 27.41,-10.29c8.358,-6.86 18.879,-15.881 31.56,-27.064c0,16.025 5.937,25.306 17.812,27.842l2.421,0c8.07,0 17.293,-3.343 27.669,-10.03c8.986,-5.718 19.472,-13.509 31.459,-23.371Zm479.639,19.462c0.146,2.209 0.782,4.174 1.908,5.898c2.825,4.323 8.157,6.716 15.996,7.177c10.607,0.576 20.464,-1.845 29.572,-7.263c3.805,-2.19 11.298,-8.128 22.481,-17.812c0.576,21.559 14.642,27.381 42.196,17.466c3.343,-1.499 6.514,-3.286 9.511,-5.361c0,-0.231 0.173,-0.346 0.519,-0.346c2.808,-1.872 5.481,-3.901 8.018,-6.087c3.07,12.254 12.56,16.474 28.47,12.659c3.343,-1.268 6.687,-2.709 10.03,-4.323c1.268,-0.692 2.652,-1.326 4.15,-1.902c3.805,-1.729 6.197,-2.162 7.177,-1.297c0.98,0.865 1.153,2.248 0.519,4.15c-0.634,1.902 -1.585,3.805 -2.853,5.707c-1.268,1.902 -2.248,3.142 -2.94,3.718c-4.381,2.536 -8.82,4.957 -13.316,7.263l-0.346,0c-43.118,22.02 -85.141,46.115 -126.068,72.286c-11.414,7.033 -22.02,14.988 -31.82,23.865c-4.381,4.035 -8.358,8.358 -11.932,12.97c-8.07,10.952 -7.667,21.213 1.211,30.782c6.571,7.148 14.411,12.336 23.519,15.564c22.135,7.955 45.135,9.511 69,4.669c14.411,-2.767 27.208,-9.396 38.391,-19.887c9.338,-8.301 17.293,-17.812 23.865,-28.534c11.759,-18.677 21.559,-38.333 29.399,-58.97c6.11,-15.449 11.932,-31.013 17.466,-46.692c2.075,-6.571 6.283,-11.414 12.624,-14.526c2.767,-1.268 5.534,-2.652 8.301,-4.15c1.729,-1.038 3.516,-1.902 5.361,-2.594c12.451,-6.341 24.845,-12.682 37.181,-19.023c10.491,-5.419 20.925,-10.664 31.301,-15.737c1.499,-0.692 2.623,-1.672 3.372,-2.94c0.749,-1.268 0.778,-2.536 0.086,-3.805c-0.576,-0.807 -1.441,-1.326 -2.594,-1.556c-1.153,-0.231 -2.19,-0.231 -3.113,0c-4.842,1.268 -9.569,2.94 -14.181,5.015c-6.802,3.228 -13.662,6.399 -20.579,9.511c-9.8,4.496 -19.541,9.05 -29.226,13.662c-0.807,0.231 -1.556,0.461 -2.248,0.692c-5.303,2.767 -9.05,3.977 -11.241,3.632c-2.19,-0.346 -1.729,-3.977 1.383,-10.895c2.19,-5.303 4.439,-10.491 6.744,-15.564c2.075,-4.842 4.266,-9.511 6.571,-14.008c3.228,-7.378 6.514,-14.642 9.857,-21.79c1.268,-3.805 0.951,-6.888 -0.951,-9.252c-1.902,-2.363 -4.756,-2.796 -8.56,-1.297c-3.574,1.499 -7.061,2.248 -10.462,2.248c-3.401,0 -6.773,-0.231 -10.117,-0.692c-1.268,-0.346 -2.536,-0.519 -3.805,-0.519c-12.221,-1.268 -23.577,0.836 -34.068,6.312c-10.491,5.476 -19.109,13.028 -25.853,22.654c-5.229,7.464 -8.57,15.638 -10.022,24.523c-2.835,2.949 -6.008,6.074 -9.52,9.372c-5.707,5.361 -11.414,8.993 -17.12,10.895c-5.707,1.902 -9.944,1.902 -12.711,0c-2.767,-1.902 -2.652,-8.33 0.346,-19.282c0.807,-2.536 1.556,-5.073 2.248,-7.609c1.268,-6.802 -1.902,-10.203 -9.511,-10.203c-5.303,0.461 -9.742,2.594 -13.316,6.399c-8.07,7.378 -16.313,14.584 -24.729,21.617l-0.346,0.519c-1.729,1.268 -3.862,2.853 -6.399,4.756c-2.536,1.902 -5.073,3.343 -7.609,4.323c-2.536,0.98 -4.842,1.124 -6.917,0.432c-0.692,-0.576 -0.98,-1.355 -0.865,-2.335c0.115,-0.98 0.404,-1.873 0.865,-2.68c8.647,-18.561 21.847,-33.03 39.602,-43.406c3.805,-2.306 7.407,-3.833 10.808,-4.583c3.401,-0.749 6.773,1.182 10.117,5.793c0.231,0.231 0.548,0.404 0.951,0.519c0.404,0.115 0.721,0.173 0.951,0.173c3.343,1.268 6.283,0.749 8.82,-1.556c1.96,-1.96 2.594,-4.208 1.902,-6.744c-1.614,-8.416 -6.341,-12.855 -14.181,-13.316c-7.84,-0.807 -15.333,0.576 -22.481,4.15c-13.373,6.11 -25.536,14.238 -36.489,24.384c-7.329,7.148 -13.344,15.076 -18.045,23.786c-0.828,0.711 -1.701,1.458 -2.62,2.24c-6.975,5.937 -16.89,11.759 -29.744,17.466c-12.855,5.707 -20.147,2.911 -21.876,-8.387c-1.729,-11.298 24.672,-81.624 79.203,-210.978c0.461,-3.228 0.058,-5.476 -1.211,-6.744c-1.268,-1.268 -2.536,-2.19 -3.805,-2.767c-3.805,-1.499 -7.09,-0.865 -9.857,1.902c-2.075,2.075 -3.632,4.496 -4.669,7.263c-12.336,31.013 -29.11,70.787 -50.323,119.324c-21.213,48.537 -30.782,80.702 -28.707,96.497c2.767,15.91 10.808,23.173 24.124,21.79c13.316,-1.383 26.257,-6.514 38.823,-15.391c1.485,-1.049 2.953,-2.121 4.404,-3.217Zm152.273,-6.986c-4.266,-2.882 -5.332,-8.301 -3.199,-16.256c2.133,-7.955 6.427,-15.996 12.884,-24.124c6.456,-8.128 13.892,-13.863 22.308,-17.207c2.536,-0.692 4.929,-1.095 7.177,-1.211c2.248,-0.115 4.295,0.922 6.139,3.113c1.038,1.038 1.787,2.19 2.248,3.459c1.729,4.381 0.836,9.742 -2.68,16.083c-3.516,6.341 -8.272,12.538 -14.267,18.59c-5.995,6.053 -11.846,10.808 -17.553,14.267c-5.707,3.459 -10.059,4.554 -13.056,3.286Zm11.414,61.218c-7.84,22.597 -18.1,44.271 -30.782,65.023c-4.381,6.802 -8.935,13.373 -13.662,19.714c-7.955,9.684 -16.602,16.947 -25.94,21.79c-9.338,4.842 -19.484,6.86 -30.436,6.053c-9.338,0 -17.899,-1.009 -25.681,-3.026c-7.782,-2.018 -14.843,-5.563 -21.184,-10.635c-10.837,-8.416 -11.183,-18.043 -1.038,-28.88c9.569,-10.145 20.464,-18.792 32.684,-25.94c27.669,-17.985 56.088,-34.875 85.256,-50.669c4.842,-2.536 9.281,-5.073 13.316,-7.609c6.341,-4.035 11.471,-6.802 15.391,-8.301c3.92,-1.499 6.139,-0.663 6.658,2.508c0.519,3.17 -1.009,9.828 -4.583,19.974Zm-623.97,-847.79c-2.767,5.649 -5.419,11.125 -7.955,16.429c-2.075,4.612 -4.208,9.05 -6.399,13.316c-5.419,10.952 -10.895,22.251 -16.429,33.895c-13.143,26.055 -26.257,52.802 -39.342,80.241c-13.085,27.439 -24.47,53.84 -34.154,79.203c-0.922,2.998 -0.115,5.534 2.421,7.609c0.692,0.461 1.614,0.807 2.767,1.038c1.153,0.231 2.248,0.115 3.286,-0.346c1.499,-0.807 2.882,-1.96 4.15,-3.459c1.038,-1.038 1.989,-1.931 2.853,-2.68c0.865,-0.749 1.701,-1.124 2.508,-1.124c6.571,7.609 14.094,11.731 22.568,12.365c8.474,0.634 17.437,-1.701 26.891,-7.004c11.183,-8.877 20.176,-20.291 26.978,-34.241c6.802,-13.95 9.223,-27.669 7.263,-41.158c-1.268,-11.875 -8.013,-17.927 -20.233,-18.158c-3.228,0 -7.897,1.124 -14.008,3.372c-6.11,2.248 -11.183,5.793 -15.218,10.635c4.266,-9.338 9.338,-19.599 15.218,-30.782c5.303,-10.607 9.742,-19.599 13.316,-26.978c1.268,-3.113 2.652,-6.283 4.15,-9.511c9.915,-21.79 19.657,-43.752 29.226,-65.887c0.576,-1.038 0.98,-1.902 1.211,-2.594c2.536,-5.073 4.439,-10.261 5.707,-15.564c0.231,-1.038 -0.404,-1.758 -1.902,-2.162c-1.499,-0.404 -3.257,-0.461 -5.274,-0.173c-2.018,0.288 -3.977,0.749 -5.88,1.383c-1.902,0.634 -3.142,1.412 -3.718,2.335Zm-43.406,156.85c8.877,-5.88 14.988,-8.243 18.331,-7.09c3.343,1.153 4.756,4.381 4.237,9.684c-0.519,5.303 -2.046,11.529 -4.583,18.677c-3.113,8.07 -7.206,15.679 -12.278,22.827c-5.073,7.148 -10.145,13.085 -15.218,17.812c-5.073,4.15 -9.511,5.015 -13.316,2.594c-3.805,-2.421 -6.168,-6.571 -7.09,-12.451c-1.845,-10.145 0.461,-19.772 6.917,-28.88c6.456,-9.108 14.123,-16.832 23,-23.173Zm-467.784,-483.521c-31.359,4.266 -63.092,13.633 -95.2,28.102c-32.108,14.469 -61.535,33.117 -88.282,55.944c-26.747,22.827 -47.787,49.084 -63.121,78.771c-15.333,29.687 -22.135,61.881 -20.406,96.583c1.038,14.411 -2.133,27.612 -9.511,39.602c-32.511,55.223 -58.624,113.444 -78.339,174.662c-8.416,25.825 -14.526,51.938 -18.331,78.339c-3.805,26.401 -4.554,53.148 -2.248,80.241c2.306,29.168 11.183,56.03 26.632,80.587c17.524,26.632 41.734,43.406 72.632,50.323c11.644,2.536 23.346,3.689 35.105,3.459c21.79,0 43.349,-3.343 64.677,-10.03c17.754,-5.073 34.788,-11.788 51.102,-20.147c16.313,-8.358 32.079,-17.61 47.297,-27.756c32.281,-21.559 63.121,-48.623 92.519,-81.192c29.399,-32.569 56.347,-68.654 80.846,-108.256c24.499,-39.602 45.625,-80.5 63.38,-122.696c17.754,-42.196 31.07,-83.786 39.948,-124.771c8.877,-40.985 12.221,-79.174 10.03,-114.568c-2.19,-35.394 -10.751,-65.945 -25.681,-91.654c-14.93,-25.709 -37.44,-44.53 -67.53,-56.463c-30.09,-11.932 -68.597,-14.959 -115.519,-9.079Zm-115.519,711.446c-15.795,9.338 -31.935,17.495 -48.421,24.47c-16.486,6.975 -33.607,12.249 -51.361,15.823c-7.84,1.499 -15.564,2.248 -23.173,2.248c-3.574,0 -7.148,-0.115 -10.722,-0.346c-30.09,-2.767 -54.301,-16.486 -72.632,-41.158c-7.609,-10.607 -13.575,-21.876 -17.899,-33.808c-4.323,-11.932 -7.58,-24.355 -9.771,-37.267c-2.536,-16.256 -3.43,-32.425 -2.68,-48.508c0.749,-16.083 2.392,-32.137 4.929,-48.162c5.073,-29.629 12.538,-58.48 22.395,-86.553c9.857,-28.073 21.127,-55.656 33.808,-82.748c6.687,-13.95 13.835,-27.785 21.444,-41.504c2.536,-5.073 5.188,-10.145 7.955,-15.218c1.268,-2.306 2.536,-4.439 3.805,-6.399c0.461,-0.576 0.807,-1.095 1.038,-1.556c1.845,1.268 3.113,2.94 3.805,5.015c0.346,0.461 0.749,0.922 1.211,1.383c14.411,23.634 31.906,41.1 52.485,52.399c20.579,11.298 43.781,16.832 69.606,16.602c7.148,0 14.526,-0.404 22.135,-1.211c32.166,-3.805 59.085,-15.91 80.76,-36.316c21.674,-20.406 35.855,-46.577 42.542,-78.512l0,-1.211c0.231,-0.231 0.346,-0.634 0.346,-1.211c0.461,-2.19 0.375,-4.237 -0.259,-6.139c-0.634,-1.902 -2.219,-3.372 -4.756,-4.41c-1.729,-0.576 -3.343,-0.576 -4.842,0c-4.842,-1.038 -8.301,1.499 -10.376,7.609c-1.038,2.998 -1.902,6.168 -2.594,9.511c-1.499,6.802 -3.516,13.373 -6.053,19.714c-17.063,42.08 -47.672,68.193 -91.827,78.339c-6.802,1.614 -13.604,2.421 -20.406,2.421c-26.171,-1.038 -49.661,-9.684 -70.47,-25.94c-20.81,-16.256 -34.385,-37.065 -40.726,-62.429c-1.499,-5.303 -0.865,-10.261 1.902,-14.872c1.268,-1.499 2.421,-3.113 3.459,-4.842c2.767,-4.612 5.707,-9.165 8.82,-13.662c15.218,-23.404 31.301,-46.202 48.248,-68.395c16.947,-22.193 35.336,-43.32 55.166,-63.38c10.376,-10.837 21.155,-21.328 32.338,-31.474c11.183,-10.145 23.231,-19.138 36.143,-26.978c1.038,-0.576 1.729,-1.355 2.075,-2.335c0.346,-0.98 0.173,-1.989 -0.519,-3.026c-0.807,-1.268 -1.96,-2.19 -3.459,-2.767c-2.536,-0.692 -4.957,-0.922 -7.263,-0.692c-5.534,-0.231 -10.607,1.268 -15.218,4.496c-7.84,5.649 -15.449,11.356 -22.827,17.12c-34.702,28.937 -65.772,61.276 -93.211,97.015c-8.301,10.952 -16.429,21.905 -24.384,32.857l-15.218,20.406c-0.461,1.038 -0.922,1.96 -1.383,2.767c-1.614,2.767 -4.035,5.303 -7.263,7.609c-0.231,-6.341 0.288,-12.422 1.556,-18.244c1.268,-5.822 2.767,-11.442 4.496,-16.861c0,-0.461 0.115,-0.922 0.346,-1.383c10.952,-34.241 28.851,-64.36 53.696,-90.357c24.845,-25.998 53.638,-47.182 86.38,-63.553c32.742,-16.371 66.349,-27.208 100.82,-32.511c39.775,-6.11 72.344,-3.286 97.707,8.474c25.363,11.759 44.271,30.407 56.722,55.944c12.451,25.536 19.109,55.742 19.974,90.617c0.865,34.875 -3.257,72.459 -12.365,112.752c-9.108,40.293 -22.539,81.307 -40.293,123.042c-17.754,41.734 -39.14,82.057 -64.158,120.967c-25.018,38.91 -52.86,74.419 -83.527,106.527c-30.667,32.108 -63.351,58.711 -98.053,79.809Zm239.886,399.029c-26.171,48.998 -53.436,97.275 -81.797,144.831c-28.361,47.557 -57.644,94.681 -87.85,141.373c-1.038,1.268 -2.623,3.487 -4.756,6.658c-2.133,3.17 -4.352,5.937 -6.658,8.301c-2.306,2.363 -3.977,3.228 -5.015,2.594c-1.038,-0.634 -0.922,-3.833 0.346,-9.598c14.757,-65.484 36.921,-123.532 66.493,-174.143c29.572,-50.612 70.182,-96.208 121.831,-136.79c3.113,-2.536 4.986,-3.545 5.62,-3.026c0.634,0.519 0.576,1.931 -0.173,4.237c-0.749,2.306 -1.845,4.727 -3.286,7.263c-1.441,2.536 -2.623,4.669 -3.545,6.399c-0.576,0.807 -0.98,1.441 -1.211,1.902Z"/></svg>